PathFileType  4	(X/Y/Z) C:\Users\antoi\Documents\MyRepositories\mobilecap\ResultsAnalysis
DataRate	CameraRate	NumFrames	NumMarkers	Units	OrigDataRate	OrigDataStartFrame	OrigNumFrames
100.0	100.0	7	51	mm	100.0	38	151
Frame#	Time	r_knee			r_shank_antsup			r_ankle			r_calc			r_5meta			r_toe			L_knee			L_shank_antsup			L_ankle			L_calc			L_5meta			L_toe			r_sh2			r_sh3			r_sh4			L_sh2			L_sh3			r_thigh1			r_thigh2			r_thigh3			r_thigh4			r_thigh5			L_thigh1			L_thigh2			L_thigh3			L_thigh4			r.ASIS			r.PSIS			L.ASIS			L.PSIS			C7			R_Shoulder			L_Shoulder			R_Sternum			L_Sternum			R_humerus			R_elbow_med			R_elbow_lat			R_forearm			R_wrist_radius			R_wrist_ulna			L_humerus			L_elbow_med			L_elbow_lat			L_forearm			L_wrist_radius			L_wrist_ulna			R_HJC			L_HJC			R_HJC_reg			L_HJC_reg			
		X1	Y1	Z1	X2	Y2	Z2	X3	Y3	Z3	X4	Y4	Z4	X5	Y5	Z5	X6	Y6	Z6	X7	Y7	Z7	X8	Y8	Z8	X9	Y9	Z9	X10	Y10	Z10	X11	Y11	Z11	X12	Y12	Z12	X13	Y13	Z13	X14	Y14	Z14	X15	Y15	Z15	X16	Y16	Z16	X17	Y17	Z17	X18	Y18	Z18	X19	Y19	Z19	X20	Y20	Z20	X21	Y21	Z21	X22	Y22	Z22	X23	Y23	Z23	X24	Y24	Z24	X25	Y25	Z25	X26	Y26	Z26	X27	Y27	Z27	X28	Y28	Z28	X29	Y29	Z29	X30	Y30	Z30	X31	Y31	Z31	X32	Y32	Z32	X33	Y33	Z33	X34	Y34	Z34	X35	Y35	Z35	X36	Y36	Z36	X37	Y37	Z37	X38	Y38	Z38	X39	Y39	Z39	X40	Y40	Z40	X41	Y41	Z41	X42	Y42	Z42	X43	Y43	Z43	X44	Y44	Z44	X45	Y45	Z45	X46	Y46	Z46	X47	Y47	Z47	X48	Y48	Z48	X49	Y49	Z49	X50	Y50	Z50	X51	Y51	Z51	

38	0.37000000	271.24273	597.36901	-54.22240	273.60296	443.32504	-71.83006	150.01499	98.36670	-109.66358	96.37998	79.33254	-176.83172	286.16031	36.61170	-82.50266	327.96083	64.02630	-130.13123	490.32682	645.02054	-344.33832	549.01462	452.31161	-325.88882	475.67543	147.12413	-318.67259	425.23893	118.14960	-246.64097	608.95867	63.96419	-368.29402	656.54504	99.68980	-318.31919	251.93328	333.71292	-88.76146	208.65740	448.01700	-30.16914	183.30691	337.41723	-40.09823	476.32967	458.72351	-374.70944	470.53605	342.35544	-357.49324	331.61615	884.12425	-2.70356	341.67972	773.20680	-13.77515	279.76448	746.54226	-5.91542	218.10798	878.83865	-21.46639	226.40447	762.18225	-25.73047	430.70441	936.57256	-349.84559	486.45972	814.79239	-347.19919	330.91720	896.93847	-363.79919	388.04598	772.61839	-365.41431	383.68298	1169.71203	-42.24500	188.32055	1199.85172	-115.42073	350.81381	1175.73862	-316.48967	177.64293	1200.34844	-207.94126	238.65945	1688.96590	-123.02167	315.35554	1626.12190	39.89731	290.53684	1676.36813	-307.33380	382.74906	1600.70844	-113.77473	381.89301	1607.93718	-170.39815	301.63040	1352.40079	96.67407	208.88177	1240.99298	59.80182	222.52429	1259.91790	131.72476	353.19388	1085.84521	140.87433	405.49548	1006.46324	133.65342	377.25101	995.67819	156.28585	275.23136	1386.85722	-390.70554	183.88262	1312.53861	-342.78819	201.94719	1312.60878	-418.63351	303.25682	1132.83997	-454.02946	342.09893	1061.66191	-449.91218	315.80877	1059.82711	-472.87840	303.62772	1073.92152	-77.18986	277.42038	1081.03782	-272.79100	310.03672	1088.22800	-74.09349	289.13249	1089.20049	-255.22759	
39	0.38000000	274.95353	596.90033	-54.01327	276.04710	442.80078	-71.55331	150.20201	98.57459	-109.60658	96.43415	79.54086	-176.77507	286.11533	36.50917	-82.45589	328.00624	63.89670	-130.09542	499.81582	642.37299	-342.35075	565.96859	452.54916	-323.68745	507.13182	143.94888	-316.39113	458.18487	112.52587	-244.38329	644.76341	67.07167	-365.39521	690.32029	105.46727	-315.50859	253.65537	333.36375	-88.53551	211.17797	447.89953	-29.89747	184.98146	337.48453	-39.89406	492.88716	455.49173	-372.58042	492.41175	338.81630	-355.15556	339.29632	883.06948	-2.62898	348.05249	772.01998	-13.69365	285.98299	745.96492	-5.75658	225.63209	879.01033	-20.95625	231.93898	763.11409	-24.94406	440.13998	933.96213	-348.62085	495.40997	812.00018	-345.22535	340.37458	894.79002	-363.20637	396.99044	770.17672	-364.03315	394.06178	1168.45850	-42.08857	198.72628	1198.57952	-115.53808	361.25406	1174.24808	-316.23232	188.07108	1198.92662	-208.02681	249.20646	1687.61627	-123.23058	325.57135	1624.85263	39.89578	301.40518	1674.85227	-307.42499	393.24633	1599.26818	-113.63239	392.22223	1606.46541	-170.15155	311.90357	1351.26936	97.16780	219.50078	1239.43271	60.32509	232.88561	1258.63920	132.35231	365.19604	1085.88529	141.83034	418.29011	1007.09568	134.82548	390.21089	996.07253	157.39078	286.60485	1385.21909	-390.51146	195.10449	1310.87011	-342.82879	213.33648	1310.93024	-418.62309	314.43309	1131.03701	-453.87130	353.17901	1059.76139	-449.63872	326.83612	1057.98296	-472.68476	313.96267	1072.65674	-76.99998	287.90684	1079.57334	-272.62803	320.38801	1087.09642	-73.79433	299.52829	1087.77601	-254.86041	
40	0.39000000	278.89141	596.41112	-53.75464	278.66913	442.26724	-71.22830	150.42092	98.82831	-109.51145	96.51806	79.82015	-176.68147	286.05559	36.38324	-82.41008	328.07400	63.72302	-130.04846	509.16223	639.48759	-340.30811	582.36131	452.78541	-321.39248	537.49282	141.54202	-313.75300	490.07108	107.90481	-241.73995	678.92865	70.82032	-362.11576	722.47596	111.62278	-312.29797	255.51107	333.02421	-88.24622	213.90064	447.78795	-29.57064	186.82513	337.57292	-39.62443	508.99746	452.32518	-370.33442	513.55389	335.57094	-352.58784	347.09962	881.96256	-2.48796	354.57856	770.77984	-13.56213	292.28936	745.33989	-5.60697	233.31432	879.10594	-20.38895	237.65767	763.86734	-24.11050	449.76897	931.23224	-347.41307	504.42187	809.00946	-343.22364	349.94666	892.56631	-362.62890	405.98981	767.60846	-362.66629	404.54505	1167.14932	-41.94576	209.21299	1197.18053	-115.68375	371.79143	1172.61987	-315.97850	198.57374	1197.36223	-208.12995	259.79887	1686.13303	-123.54046	335.82182	1623.45338	39.79973	312.27299	1673.17750	-307.62912	403.77202	1597.69467	-113.57528	402.57576	1604.86342	-169.99393	322.17034	1350.02143	97.58087	230.10657	1237.77227	60.77674	243.24772	1257.24492	132.89014	377.03598	1085.76052	142.71999	430.91513	1007.53262	135.85311	402.91297	996.26427	158.42414	298.03369	1383.39604	-390.38815	206.38547	1309.01184	-342.94976	224.80445	1309.04883	-418.67328	325.66105	1129.01329	-453.74647	364.20476	1057.64664	-449.39275	337.83960	1055.95898	-472.51529	324.41353	1071.30788	-76.79642	298.50853	1077.96710	-272.45296	330.87134	1085.86846	-73.49136	310.04207	1086.22434	-254.48035	
41	0.40000000	283.06047	595.87978	-53.46372	281.47356	441.70626	-70.87330	150.66614	99.12832	-109.39447	96.63777	80.17040	-176.56722	285.99935	36.24325	-82.36276	328.16345	63.50912	-129.98765	518.42029	636.42141	-338.20166	598.15600	452.99041	-319.01265	566.61710	139.81443	-310.78770	520.73914	104.20856	-238.76973	711.36142	75.08296	-358.50997	752.94360	118.03506	-308.74143	257.49567	332.68390	-87.91746	216.82996	447.67690	-29.21356	188.84625	337.68890	-39.30905	524.63369	449.25202	-367.94869	533.91020	332.62978	-349.80162	355.02365	880.79095	-2.29183	361.26374	769.47420	-13.39878	298.66350	744.66268	-5.49533	241.15148	879.11253	-19.78283	243.69252	764.28779	-23.33432	459.59745	928.39806	-346.23273	513.50146	805.83900	-341.24076	359.64173	890.27371	-362.01669	415.03727	764.93897	-361.25079	415.11467	1165.76721	-41.80467	219.78547	1195.67054	-115.85273	382.44092	1170.87275	-315.72219	209.15369	1195.67878	-208.24938	270.44250	1684.52542	-123.95082	346.10789	1621.94193	39.60958	323.13503	1671.35894	-307.92658	414.32679	1596.00254	-113.60083	412.97847	1603.14388	-169.94001	332.44961	1348.67101	97.90900	240.70683	1236.02398	61.15796	253.61765	1255.75095	133.33717	388.71947	1085.47398	143.53492	443.35905	1007.76871	136.76965	415.35193	996.24444	159.38025	309.51016	1381.39786	-390.33553	217.73143	1306.97051	-343.13700	236.34054	1306.97773	-418.77310	336.93315	1126.78252	-453.64990	375.17813	1055.34270	-449.17149	348.83459	1053.77518	-472.36596	334.96099	1069.87096	-76.58384	309.22239	1076.24090	-272.27169	341.47403	1084.54636	-73.17921	320.65792	1084.56278	-254.08332	
42	0.41000000	287.45602	595.29428	-53.16061	284.45742	441.10701	-70.50761	150.93671	99.47933	-109.27417	96.79904	80.59286	-176.45220	285.96447	36.09891	-82.31229	328.27557	63.26370	-129.91431	527.63810	633.23150	-336.03197	613.32028	453.12311	-316.55544	594.38475	138.67363	-307.53129	550.05548	101.32799	-235.52228	742.00572	79.70994	-354.61038	781.67242	124.58589	-304.89942	259.60471	332.34157	-87.57259	219.95745	447.56464	-28.85494	191.04165	337.84446	-38.97284	539.76609	446.28750	-365.40177	553.43995	329.98816	-346.80936	363.06543	879.54645	-2.05731	368.10638	768.10285	-13.21802	305.09282	743.94078	-5.42765	249.12800	879.02796	-19.16194	250.11061	764.31583	-22.69256	469.60572	925.46541	-345.10229	522.62887	802.49798	-339.33488	369.45317	887.91354	-361.32209	424.10547	762.18418	-359.74167	425.76243	1164.29405	-41.65095	230.44856	1194.06073	-116.03633	393.21218	1169.02567	-315.45967	219.81677	1193.89603	-208.38217	281.14414	1682.80728	-124.46031	356.43702	1620.33785	39.32595	333.99652	1669.40803	-308.30280	424.90679	1594.20944	-113.70523	423.44378	1601.32400	-169.99707	342.76000	1347.23337	98.14660	251.31173	1234.20174	61.46476	264.00220	1254.17874	133.69203	400.26110	1085.02835	144.26367	455.61528	1007.79755	137.59819	427.53539	996.01158	160.25380	321.02909	1379.23946	-390.34931	229.15226	1304.75561	-343.36674	247.93832	1304.73531	-418.91068	348.23785	1124.36260	-453.57850	386.12091	1052.87165	-448.97384	359.83998	1051.44341	-472.23458	345.59273	1068.33992	-76.36702	320.04638	1074.41479	-272.08938	352.18464	1083.12679	-72.85330	331.36692	1082.80473	-253.67110	
43	0.42000000	292.07579	594.65976	-52.86403	287.61543	440.47106	-70.14996	151.23595	99.89070	-109.16931	97.00397	81.09226	-176.35613	285.96293	35.95841	-82.25907	328.41203	63.00025	-129.83214	536.85307	629.97191	-333.80932	627.85103	453.14225	-314.02385	620.70325	138.01935	-304.01736	577.91209	99.12757	-232.02267	770.82413	84.52623	-350.42913	808.62616	131.14020	-300.82984	261.83861	332.00254	-87.23117	223.26706	447.45493	-28.52251	193.40013	338.05386	-38.64220	554.38279	443.43504	-362.68431	572.12321	327.62056	-343.62672	371.22152	878.22823	-1.80274	375.10039	766.67800	-13.02908	311.58202	743.18882	-5.38593	257.21659	878.86419	-18.55580	256.89552	763.99312	-22.21966	479.75947	922.43920	-344.05400	531.77736	799.00054	-337.56267	379.36903	885.49045	-360.51310	433.16769	759.36097	-358.12646	436.48633	1162.71757	-41.47099	241.20535	1192.35948	-116.22411	404.11026	1167.09662	-315.19042	230.57177	1192.02969	-208.52361	291.90948	1680.99774	-125.06699	366.82241	1618.66148	38.95053	344.87421	1667.33295	-308.75361	435.50544	1592.33633	-113.88566	433.97692	1599.42345	-170.16412	353.11599	1345.72507	98.28760	261.93398	1232.32253	61.69080	274.41039	1252.55326	133.95281	411.68036	1084.42450	144.89671	467.67818	1007.61060	138.35006	439.47809	995.57129	161.04312	332.58668	1376.94035	-390.42187	240.65664	1302.38226	-343.61110	259.59494	1302.34315	-419.07502	359.56203	1121.77505	-453.53141	397.06432	1050.24937	-448.80030	370.87379	1048.96787	-472.12320	356.30334	1066.71098	-76.14938	330.98003	1072.50637	-271.90927	362.99155	1081.60568	-72.51211	342.16883	1080.96039	-253.25210	
44	0.43000000	296.92512	593.99690	-52.58900	290.94582	439.81388	-69.81649	151.56912	100.37453	-109.09620	97.25061	81.67760	-176.29481	285.99803	35.82756	-82.20609	328.57366	62.73466	-129.74482	546.09189	626.69082	-331.55026	641.78781	453.01404	-311.41735	645.50521	137.73508	-300.27002	604.22363	97.45440	-228.26715	797.78436	89.33417	-345.97246	833.78509	137.53295	-296.58144	264.20384	331.67436	-86.90816	226.74225	447.35748	-28.23895	195.90369	338.32773	-38.34382	568.50218	440.68798	-359.80520	589.96430	325.48012	-340.27324	379.48837	876.84330	-1.54538	382.23827	765.21911	-12.83791	318.15836	742.41930	-5.34355	265.38605	878.64494	-17.99805	263.97403	763.42551	-21.91540	490.02326	919.33167	-343.12262	540.93838	795.38003	-335.96518	389.37943	883.01618	-359.58163	442.21878	756.49422	-356.42631	447.28641	1161.03773	-41.25747	252.05640	1190.57730	-116.40611	415.13809	1165.10332	-314.91713	241.42948	1190.09334	-208.66790	302.74148	1679.11993	-125.76808	377.27940	1616.93441	38.48703	355.79537	1665.14171	-309.28543	446.11888	1590.40712	-114.14116	444.58502	1597.46161	-170.43496	363.52668	1344.16469	98.32727	272.58689	1230.40891	61.83062	284.85336	1250.90074	134.11636	422.99241	1083.66343	145.43183	479.53682	1007.20089	139.02863	451.19367	994.93618	161.75134	344.18002	1374.52347	-390.54406	252.24636	1299.87435	-343.84808	271.30779	1299.82363	-419.25694	370.89410	1119.04374	-453.50925	408.03567	1047.48680	-448.65240	381.94380	1046.35100	-472.03796	367.09311	1064.98808	-75.93266	342.02442	1070.53226	-271.73271	373.88192	1079.98766	-72.15906	353.07071	1079.04034	-252.83872	
